<svg xmlns="http://www.w3.org/2000/svg" width="1333.333" height="800" preserveAspectRatio="xMidYMid meet" version="1.0" viewBox="0 0 1000 600"><metadata>Created by potrace 1.15, written by Peter Selinger 2001-2017</metadata><g fill="#000" stroke="none"><path d="M6644 5031 c-51 -13 -119 -67 -168 -133 -55 -76 -136 -166 -136 -153 0 11 -117 11 -127 1 -4 -3 -14 -6 -24 -6 -28 0 -77 -66 -94 -128 -33 -117 -25 -107 -86 -106 -30 1 -70 4 -89 7 -19 3 -43 5 -53 6 -10 1 -15 6 -12 11 4 6 -9 10 -32 11 -29 0 -33 2 -18 8 17 7 15 11 -23 35 -24 15 -55 31 -70 37 -15 6 -40 16 -57 24 -28 13 -105 30 -185 42 -22 3 -57 -3 -90 -14 l-55 -20 -90 74 c-59 48 -130 93 -205 131 -63 31 -117 57 -120 57 -3 0 -11 4 -17 8 -7 5 -13 6 -13 3 0 -3 -12 -1 -27 5 -30 12 -57 19 -88 24 -11 1 -45 7 -75 13 -66 13 -166 2 -200 -21 -31 -20 -73 -76 -175 -230 -67 -100 -85 -120 -121 -137 -59 -25 -91 -81 -111 -190 -7 -38 -56 -120 -76 -126 -10 -3 -35 -22 -56 -42 -22 -20 -62 -56 -89 -80 -75 -63 -132 -180 -132 -271 0 -45 -5 -51 -60 -83 -25 -15 -59 -41 -77 -60 -40 -42 -121 -182 -158 -273 -31 -78 -33 -81 -90 -95 -94 -25 -220 -112 -278 -192 -6 -10 -52 -29 -102 -44 -49 -14 -97 -32 -105 -39 -8 -7 -49 -27 -91 -44 -94 -39 -164 -82 -207 -127 -17 -20 -35 -33 -40 -31 -10 6 -144 -65 -149 -79 -2 -6 19 -15 49 -21 46 -9 41 -9 -41 -5 -62 3 -92 2 -88 -5 4 -6 -3 -8 -17 -6 -13 3 -27 0 -30 -6 -5 -7 9 -11 42 -11 71 0 307 -71 406 -123 23 -11 102 -42 176 -68 74 -26 130 -48 123 -48 -6 -1 -13 -16 -15 -33 -2 -21 -9 -33 -18 -33 -8 -1 -31 -4 -50 -8 -63 -12 -134 -19 -216 -22 -44 -2 -105 -8 -135 -14 -29 -5 -65 -10 -79 -10 -14 1 -82 0 -152 -1 -78 -1 -134 3 -147 10 -12 6 -26 8 -31 5 -5 -3 -42 4 -82 15 -40 11 -87 20 -105 20 -17 0 -35 5 -38 10 -4 6 -10 8 -14 6 -4 -3 -25 10 -45 29 -32 29 -36 37 -24 48 17 17 17 17 168 22 69 2 147 -1 174 -7 50 -10 62 -8 210 46 l40 14 -42 7 c-45 7 -102 -1 -102 -16 0 -5 -11 -9 -24 -9 -13 0 -26 -5 -28 -12 -4 -10 -29 -10 -119 0 -63 7 -118 17 -124 23 -6 6 -6 9 0 10 6 0 24 3 40 5 17 3 38 5 48 5 9 0 15 4 13 8 -3 4 10 8 27 9 70 5 82 8 99 22 10 8 18 18 18 22 0 5 -40 8 -90 8 -49 0 -90 -4 -90 -8 0 -8 -106 -24 -270 -42 -175 -19 -329 -80 -409 -164 -21 -21 -45 -36 -58 -36 -94 0 -166 -91 -214 -270 -12 -47 -18 -260 -8 -295 12 -42 39 -96 65 -130 29 -38 177 -119 239 -131 19 -3 35 -11 35 -17 0 -6 3 -7 7 -4 3 4 11 3 17 -2 6 -5 27 -11 46 -14 74 -11 308 -56 375 -72 39 -9 88 -18 110 -21 40 -6 357 -83 363 -88 1 -2 -28 -4 -65 -5 -37 -1 -81 -5 -98 -10 -16 -6 -57 -12 -90 -14 -33 -3 -71 -7 -85 -10 -43 -9 -172 -28 -235 -34 -33 -3 -62 -9 -65 -12 -6 -9 -140 -31 -184 -31 -32 0 -53 -20 -41 -40 3 -4 -2 -10 -10 -14 -8 -3 -15 -10 -15 -16 0 -6 5 -8 10 -5 14 9 13 -8 -2 -23 -9 -9 -7 -12 11 -12 12 0 19 -4 16 -10 -3 -5 4 -10 17 -10 13 0 55 -4 93 -9 147 -20 1051 9 1230 39 206 34 654 65 703 48 13 -4 57 -8 98 -8 41 0 118 -5 172 -10 127 -14 373 -61 367 -70 -8 -13 -161 -30 -420 -45 -277 -17 -449 -38 -540 -66 -33 -10 -70 -19 -82 -19 -13 0 -23 -4 -23 -8 0 -4 -8 -8 -17 -9 -26 -2 -46 -7 -60 -16 -7 -5 -17 -6 -22 -2 -5 3 -13 0 -17 -6 -5 -8 -2 -10 7 -5 8 4 6 1 -3 -7 -10 -8 -14 -17 -10 -22 4 -4 -4 -4 -18 0 -22 7 -23 6 -11 -9 7 -9 24 -16 37 -16 13 0 24 -4 24 -10 0 -5 3 -9 8 -8 4 1 23 -2 42 -5 19 -4 55 -9 80 -11 25 -3 56 -7 70 -11 109 -24 829 -36 1266 -21 88 3 236 8 329 11 368 12 797 32 875 41 25 3 72 10 105 15 33 5 64 9 68 9 5 0 6 4 3 9 -9 14 157 25 584 36 124 3 250 8 280 11 164 14 462 58 505 74 14 5 25 8 25 5 0 -2 37 9 83 25 45 15 102 29 127 31 25 1 53 9 62 17 10 8 26 12 38 9 11 -3 18 -1 15 4 -8 12 26 18 150 23 61 3 119 7 130 9 42 10 413 29 602 31 33 1 60 3 58 6 -2 3 6 7 18 7 18 2 19 0 7 -8 -11 -7 -9 -8 10 -4 14 3 39 7 55 10 17 2 46 7 65 10 19 3 45 7 57 9 13 2 30 9 40 17 9 8 14 9 10 3 -4 -7 2 -10 18 -6 38 7 19 22 -27 22 -33 0 -38 2 -29 14 9 11 3 14 -35 14 -25 1 -52 6 -58 12 -7 5 -16 7 -19 3 -4 -3 -7 -4 -7 -1 0 3 42 26 93 51 114 56 160 101 215 209 45 89 46 95 44 206 -2 73 -15 89 -27 33 -23 -107 -244 -237 -475 -280 -225 -42 -500 -73 -610 -69 -36 1 -114 -1 -175 -5 -260 -17 -275 -17 -293 6 -93 118 -233 168 -370 133 -80 -20 -262 -108 -397 -191 -60 -37 -128 -77 -150 -89 -74 -40 -240 -139 -280 -166 -44 -30 -117 -48 -213 -52 l-64 -3 -2 75 c-2 84 -16 117 -77 190 -31 38 -54 53 -131 84 -54 22 -117 41 -151 44 -67 6 -200 -16 -190 -31 3 -6 1 -7 -5 -3 -6 3 -37 -1 -69 -10 -101 -27 -126 -32 -223 -38 -126 -9 -357 16 -560 59 -36 8 -90 17 -120 21 -120 14 -473 119 -650 192 -88 36 -163 106 -218 202 -38 67 -50 79 -75 72 -19 -5 -20 -3 -9 11 8 9 11 25 7 37 -4 12 -2 20 5 20 6 0 8 -5 4 -11 -5 -8 6 -9 35 -4 44 7 64 4 286 -51 77 -20 223 -53 323 -75 101 -21 187 -41 191 -44 5 -2 46 -11 92 -20 46 -8 122 -22 168 -30 100 -18 357 -52 491 -64 90 -9 289 -8 410 2 342 26 372 22 494 -61 45 -30 104 -65 131 -77 132 -58 333 -28 439 66 99 87 272 194 386 238 170 66 439 96 595 68 110 -21 297 -15 395 11 185 49 335 96 455 143 72 29 177 67 235 86 98 32 241 83 248 88 2 1 -8 27 -21 56 -14 33 -24 78 -26 114 -2 53 -25 142 -51 200 -4 11 -8 27 -8 35 3 58 -51 210 -75 210 -7 0 -14 6 -15 13 -19 162 -14 272 13 267 15 -2 24 33 13 53 -6 11 -17 17 -28 14 -13 -3 -16 0 -13 14 3 11 1 25 -5 32 -8 10 -65 199 -134 445 -5 20 -13 30 -20 26 -7 -5 -8 -2 -3 6 4 7 4 15 -1 19 -11 7 -37 79 -70 191 -14 47 -33 92 -42 100 -9 8 -18 26 -20 40 -1 13 -7 29 -13 35 -7 7 -8 4 -4 -10 3 -11 -8 7 -26 40 -27 51 -71 117 -89 135 -3 3 -18 23 -35 45 -16 22 -46 57 -67 78 -20 20 -35 37 -32 37 16 0 87 -56 127 -100 43 -47 107 -161 107 -189 0 -6 4 -11 9 -11 10 0 -33 189 -52 228 -8 15 -17 47 -21 71 -9 58 -31 98 -66 119 -24 15 -42 17 -132 10 -56 -4 -123 -10 -148 -14 l-45 -6 30 -13 c17 -7 26 -14 21 -14 -10 -1 -102 40 -148 64 -14 8 -30 15 -36 15 -5 0 -27 8 -48 17 -22 9 -48 16 -59 14 -15 -1 -16 1 -7 7 18 13 -111 53 -163 51 -22 -1 -62 -12 -88 -24 l-48 -23 -52 51 c-83 80 -199 162 -307 216 -55 28 -102 51 -105 51 -3 0 -6 0 -7 1 -2 0 -10 2 -18 4 -8 2 -42 10 -75 19 -32 9 -62 16 -65 15 -3 -1 -19 -4 -36 -8z m-2490 -2356 c23 -17 62 -20 71 -5 3 6 11 10 17 10 7 0 7 -5 -1 -14 -9 -11 -5 -15 25 -21 24 -4 41 -2 48 6 8 9 5 10 -13 6 -18 -4 -21 -3 -13 5 9 9 18 8 37 0 15 -7 31 -9 37 -6 7 4 8 2 4 -5 -4 -6 -16 -9 -27 -6 -10 4 -19 3 -19 -2 0 -10 42 -29 85 -39 17 -4 57 -21 90 -38 33 -17 65 -31 70 -32 6 -1 12 -3 15 -4 3 -1 14 -4 25 -6 11 -2 36 -7 55 -10 19 -4 40 -10 45 -14 12 -9 59 -21 99 -26 16 -3 34 -8 40 -13 6 -6 24 -8 38 -7 15 2 25 0 23 -5 -3 -4 9 -10 27 -14 79 -15 119 -28 110 -37 -6 -6 -17 -6 -30 1 -11 6 -36 11 -56 11 -19 0 -37 4 -40 9 -3 5 -20 11 -38 14 -18 3 -42 7 -53 10 -11 3 -74 19 -140 36 -140 37 -282 84 -329 111 -49 27 -171 59 -246 63 -36 3 -54 3 -40 0 108 -18 185 -38 254 -68 129 -55 207 -81 302 -105 49 -11 100 -25 114 -29 25 -9 46 -15 180 -51 41 -11 113 -33 159 -48 74 -23 80 -27 52 -30 -19 -2 -38 1 -44 7 -6 6 -18 11 -26 11 -9 0 -45 9 -81 20 -36 10 -144 42 -240 71 -175 52 -337 103 -375 119 -11 4 -36 15 -55 23 -72 31 -176 58 -248 64 -63 5 -71 8 -59 20 8 8 34 17 57 19 24 2 46 6 48 9 9 9 26 5 46 -10z m113 -101 c38 -14 77 -30 88 -34 48 -21 424 -138 710 -222 39 -11 86 -26 105 -33 19 -7 56 -15 83 -19 32 -5 47 -12 47 -22 0 -25 31 -64 51 -64 11 0 19 -4 19 -10 0 -5 3 -9 8 -9 19 3 33 -2 27 -11 -3 -6 -17 -7 -30 -4 -16 4 -30 -1 -45 -16 -19 -19 -40 -24 -144 -33 -102 -8 -133 -7 -196 7 -41 9 -110 22 -153 28 -69 9 -79 9 -90 -6 -14 -18 -216 -59 -251 -50 -11 2 -86 11 -166 18 -106 10 -149 10 -159 2 -11 -8 -13 -8 -8 1 7 12 -16 18 -178 49 -38 7 -88 18 -110 24 -114 30 -205 52 -250 61 -49 8 -81 19 -142 45 -17 8 -35 14 -40 14 -17 0 -48 45 -48 70 0 17 7 26 23 30 13 3 22 10 20 15 -4 12 -65 7 -91 -7 -10 -5 -31 -6 -48 -3 -20 5 -29 3 -29 -6 0 -7 -3 -10 -6 -6 -9 8 -104 -41 -104 -53 0 -6 -13 -10 -30 -10 -16 0 -30 -5 -30 -11 0 -5 4 -7 10 -4 12 8 174 -23 222 -42 35 -14 68 -49 68 -73 0 -5 -11 -10 -25 -10 -18 0 -23 4 -18 15 3 10 0 15 -8 13 -8 -2 -13 2 -12 8 1 7 -8 9 -22 6 -16 -3 -25 0 -25 8 0 10 -3 10 -15 0 -10 -9 -15 -9 -15 -1 0 6 -3 10 -7 9 -5 -1 -21 4 -37 11 -16 6 -35 10 -42 7 -8 -3 -16 -1 -19 5 -4 5 -11 7 -16 3 -5 -3 -16 0 -24 6 -11 10 -15 10 -15 1 0 -8 -11 -10 -32 -7 -17 3 -37 2 -42 -2 -19 -11 -56 -13 -56 -3 0 6 14 18 32 27 17 9 59 40 93 69 117 99 234 150 405 175 47 7 130 20 185 31 67 12 113 16 140 10 44 -8 285 5 325 19 39 13 45 12 117 -16z m-2650 -331 c11 -10 25 -28 32 -41 10 -18 15 -20 32 -12 19 11 128 1 224 -20 22 -5 92 -18 155 -29 63 -12 152 -27 196 -35 45 -9 122 -20 170 -26 102 -12 387 -59 392 -65 2 -2 -4 -34 -13 -72 -10 -37 -18 -107 -19 -155 0 -49 -5 -88 -10 -88 -4 0 -54 11 -110 25 -55 13 -139 31 -185 40 -232 43 -506 140 -607 215 -28 22 -84 71 -123 109 -39 39 -74 71 -79 71 -4 0 -13 9 -20 20 -7 12 -18 18 -24 14 -7 -4 -8 -3 -4 4 4 7 2 12 -5 12 -7 0 -9 3 -6 7 4 3 0 15 -10 25 -21 23 -12 23 14 1z m3961 -92 c9 -5 29 -14 45 -20 52 -21 20 -61 -65 -80 -24 -6 -69 -19 -100 -30 -105 -36 -213 -42 -298 -17 -42 12 -69 45 -38 47 7 0 60 2 118 4 60 2 125 10 151 19 25 9 66 17 92 18 26 2 42 7 37 12 -12 12 -1 36 16 36 8 0 14 5 14 10 0 12 5 13 28 1z" transform="translate(0.000000,600.000000) scale(0.100000,-0.100000)"/></g></svg>